<svg width="1200" height="675" viewBox="0 0 1200 675" xmlns="http://www.w3.org/2000/svg"><rect width="1200" height="675" fill="#fdeedc"/><rect x="40" y="26" width="158" height="32" rx="16" fill="#c9563f"/><text x="119.0" y="47" text-anchor="middle" font-family="DejaVu Sans, sans-serif" font-size="15" font-weight="bold" fill="#ffffff">The folder map</text><rect x="60" y="80" width="380" height="570" rx="14" fill="#fff8ee" stroke="#e0c9a8" stroke-width="2"/><rect x="62" y="82" width="376" height="34" rx="12" fill="#f0d7b4"/><rect x="62" y="100" width="376" height="16" fill="#f0d7b4"/><text x="84" y="105" font-family="DejaVu Sans, sans-serif" font-size="14" font-weight="bold" fill="#4a3520">BUILDER'S CITADEL</text><path d="M84 131 h9 l5 5 v13 h-14 z" fill="#ffffff" stroke="#cfa06a" stroke-width="1.5"/><path d="M93 131 l5 5 h-5 z" fill="#e8c294" stroke="#cfa06a" stroke-width="1"/><text x="112" y="145" font-family="DejaVu Sans, sans-serif" font-size="16" fill="#6e4a2c">00-START-HERE.md</text><path d="M84 159 h9 l5 5 v13 h-14 z" fill="#ffffff" stroke="#cfa06a" stroke-width="1.5"/><path d="M93 159 l5 5 h-5 z" fill="#e8c294" stroke="#cfa06a" stroke-width="1"/><text x="112" y="173" font-family="DejaVu Sans, sans-serif" font-size="16" fill="#6e4a2c">CLAUDE.md</text><path d="M84 187 h9 l5 5 v13 h-14 z" fill="#ffffff" stroke="#cfa06a" stroke-width="1.5"/><path d="M93 187 l5 5 h-5 z" fill="#e8c294" stroke="#cfa06a" stroke-width="1"/><text x="112" y="201" font-family="DejaVu Sans, sans-serif" font-size="16" fill="#6e4a2c">SETUP.md</text><path d="M84 215 h9 l5 5 v13 h-14 z" fill="#ffffff" stroke="#cfa06a" stroke-width="1.5"/><path d="M93 215 l5 5 h-5 z" fill="#e8c294" stroke="#cfa06a" stroke-width="1"/><text x="112" y="229" font-family="DejaVu Sans, sans-serif" font-size="16" fill="#6e4a2c">GUIDE.md</text><path d="M84 243 h9 l5 5 v13 h-14 z" fill="#ffffff" stroke="#cfa06a" stroke-width="1.5"/><path d="M93 243 l5 5 h-5 z" fill="#e8c294" stroke="#cfa06a" stroke-width="1"/><text x="112" y="257" font-family="DejaVu Sans, sans-serif" font-size="16" fill="#6e4a2c">README.md</text><rect x="82" y="272" width="11" height="6" rx="2" fill="#d4a72c"/><rect x="82" y="275" width="22" height="13" rx="2" fill="#f2c94c" stroke="#d4a72c" stroke-width="1"/><text x="114" y="285" font-family="DejaVu Sans, sans-serif" font-size="16" fill="#6e4a2c">01-Streams</text><rect x="82" y="300" width="11" height="6" rx="2" fill="#d4a72c"/><rect x="82" y="303" width="22" height="13" rx="2" fill="#f2c94c" stroke="#d4a72c" stroke-width="1"/><text x="114" y="313" font-family="DejaVu Sans, sans-serif" font-size="16" fill="#6e4a2c">02-Comms</text><rect x="82" y="328" width="11" height="6" rx="2" fill="#d4a72c"/><rect x="82" y="331" width="22" height="13" rx="2" fill="#f2c94c" stroke="#d4a72c" stroke-width="1"/><text x="114" y="341" font-family="DejaVu Sans, sans-serif" font-size="16" fill="#6e4a2c">03-DNA</text><rect x="82" y="356" width="11" height="6" rx="2" fill="#d4a72c"/><rect x="82" y="359" width="22" height="13" rx="2" fill="#f2c94c" stroke="#d4a72c" stroke-width="1"/><text x="114" y="369" font-family="DejaVu Sans, sans-serif" font-size="16" fill="#6e4a2c">04-Explorations</text><rect x="82" y="384" width="11" height="6" rx="2" fill="#d4a72c"/><rect x="82" y="387" width="22" height="13" rx="2" fill="#f2c94c" stroke="#d4a72c" stroke-width="1"/><text x="114" y="397" font-family="DejaVu Sans, sans-serif" font-size="16" fill="#6e4a2c">05-People</text><rect x="82" y="412" width="11" height="6" rx="2" fill="#d4a72c"/><rect x="82" y="415" width="22" height="13" rx="2" fill="#f2c94c" stroke="#d4a72c" stroke-width="1"/><text x="114" y="425" font-family="DejaVu Sans, sans-serif" font-size="16" fill="#6e4a2c">06-Logistics</text><rect x="82" y="440" width="11" height="6" rx="2" fill="#d4a72c"/><rect x="82" y="443" width="22" height="13" rx="2" fill="#f2c94c" stroke="#d4a72c" stroke-width="1"/><text x="114" y="453" font-family="DejaVu Sans, sans-serif" font-size="16" fill="#6e4a2c">07-Research</text><rect x="82" y="468" width="11" height="6" rx="2" fill="#d4a72c"/><rect x="82" y="471" width="22" height="13" rx="2" fill="#f2c94c" stroke="#d4a72c" stroke-width="1"/><text x="114" y="481" font-family="DejaVu Sans, sans-serif" font-size="16" fill="#6e4a2c">08-Money</text><rect x="82" y="496" width="11" height="6" rx="2" fill="#d4a72c"/><rect x="82" y="499" width="22" height="13" rx="2" fill="#f2c94c" stroke="#d4a72c" stroke-width="1"/><text x="114" y="509" font-family="DejaVu Sans, sans-serif" font-size="16" fill="#6e4a2c">09-Partner</text><rect x="82" y="524" width="11" height="6" rx="2" fill="#d4a72c"/><rect x="82" y="527" width="22" height="13" rx="2" fill="#f2c94c" stroke="#d4a72c" stroke-width="1"/><text x="114" y="537" font-family="DejaVu Sans, sans-serif" font-size="16" fill="#6e4a2c">10-Board</text><rect x="82" y="552" width="11" height="6" rx="2" fill="#d4a72c"/><rect x="82" y="555" width="22" height="13" rx="2" fill="#f2c94c" stroke="#d4a72c" stroke-width="1"/><text x="114" y="565" font-family="DejaVu Sans, sans-serif" font-size="16" fill="#6e4a2c">11-Executors</text><rect x="82" y="580" width="11" height="6" rx="2" fill="#d4a72c"/><rect x="82" y="583" width="22" height="13" rx="2" fill="#f2c94c" stroke="#d4a72c" stroke-width="1"/><text x="114" y="593" font-family="DejaVu Sans, sans-serif" font-size="16" fill="#6e4a2c">12-Reference</text><rect x="82" y="608" width="11" height="6" rx="2" fill="#d4a72c"/><rect x="82" y="611" width="22" height="13" rx="2" fill="#f2c94c" stroke="#d4a72c" stroke-width="1"/><text x="114" y="621" font-family="DejaVu Sans, sans-serif" font-size="16" fill="#6e4a2c">13-Code</text><line x1="448" y1="168" x2="575" y2="168" stroke="#b0543c" stroke-width="2" stroke-dasharray="2 6" stroke-linecap="round"/><circle cx="448" cy="168" r="3" fill="#b0543c"/><text x="590" y="174" font-family="DejaVu Sans, sans-serif" font-size="18" fill="#8a6a48">the rulebook loads first</text><line x1="448" y1="280" x2="575" y2="284" stroke="#b0543c" stroke-width="2" stroke-dasharray="2 6" stroke-linecap="round"/><circle cx="448" cy="280" r="3" fill="#b0543c"/><text x="590" y="290" font-family="DejaVu Sans, sans-serif" font-size="18" fill="#8a6a48">numbered so nothing gets lost</text><line x1="448" y1="476" x2="575" y2="480" stroke="#b0543c" stroke-width="2" stroke-dasharray="2 6" stroke-linecap="round"/><circle cx="448" cy="476" r="3" fill="#b0543c"/><text x="590" y="486" font-family="DejaVu Sans, sans-serif" font-size="18" fill="#8a6a48">sensitive layers live deeper</text><polygon points="930,540 964,560 930,580 896,560" fill="#f2c94c"/><polygon points="896,560 930,580 930,612 896,592" fill="#d4a72c"/><polygon points="964,560 930,580 930,612 964,592" fill="#b3881e"/></svg>