<svg width="1200" height="675" viewBox="0 0 1200 675" xmlns="http://www.w3.org/2000/svg"><rect width="1200" height="675" fill="#fdeedc"/><rect x="40" y="26" width="190" height="32" rx="16" fill="#c9563f"/><text x="135.0" y="47" text-anchor="middle" font-family="DejaVu Sans, sans-serif" font-size="15" font-weight="bold" fill="#ffffff">Two kinds of locks</text><rect x="80" y="90" width="1040" height="440" rx="14" fill="#fff8ee" stroke="#e0c9a8" stroke-width="2"/><line x1="600" y1="112" x2="600" y2="508" stroke="#e0c9a8" stroke-width="2"/><text x="345" y="152" text-anchor="middle" font-family="DejaVu Sans, sans-serif" font-size="24" font-weight="bold" fill="#4a3520">_Stream-Docs/</text><line x1="345" y1="292" x2="265" y2="338" stroke="#e0c9a8" stroke-width="2"/><line x1="345" y1="292" x2="425" y2="338" stroke="#e0c9a8" stroke-width="2"/><rect x="275" y="180" width="60" height="18" rx="4" fill="#d4a72c"/><rect x="275" y="192" width="140" height="100" rx="8" fill="#f2c94c" stroke="#d4a72c" stroke-width="2"/><path d="M330 230 v-8 a15 15 0 0 1 30 0 v8" fill="none" stroke="#4a3520" stroke-width="5"/><rect x="322" y="230" width="46" height="34" rx="4" fill="#6e4a2c"/><circle cx="345" cy="243" r="5" fill="#f2c94c"/><rect x="343" y="245" width="4" height="10" fill="#f2c94c"/><rect x="220" y="340" width="36" height="14" rx="3" fill="#d4a72c"/><rect x="220" y="350" width="90" height="64" rx="6" fill="#f2c94c" stroke="#d4a72c" stroke-width="2"/><path d="M256 372 v-5 a9 9 0 0 1 18 0 v5" fill="none" stroke="#4a3520" stroke-width="4"/><rect x="251" y="372" width="28" height="22" rx="3" fill="#6e4a2c"/><circle cx="265" cy="381" r="3.5" fill="#f2c94c"/><text x="265" y="442" text-anchor="middle" font-family="DejaVu Sans, sans-serif" font-size="16" font-weight="bold" fill="#4a3520">_Private/</text><rect x="380" y="340" width="36" height="14" rx="3" fill="#d4a72c"/><rect x="380" y="350" width="90" height="64" rx="6" fill="#f2c94c" stroke="#d4a72c" stroke-width="2"/><path d="M416 372 v-5 a9 9 0 0 1 18 0 v5" fill="none" stroke="#4a3520" stroke-width="4"/><rect x="411" y="372" width="28" height="22" rx="3" fill="#6e4a2c"/><circle cx="425" cy="381" r="3.5" fill="#f2c94c"/><text x="425" y="442" text-anchor="middle" font-family="DejaVu Sans, sans-serif" font-size="16" font-weight="bold" fill="#4a3520">_Heavy/</text><text x="345" y="490" text-anchor="middle" font-family="DejaVu Sans, sans-serif" font-size="14" fill="#8a6a48">a second lock inside the first</text><text x="860" y="152" text-anchor="middle" font-family="DejaVu Sans, sans-serif" font-size="24" font-weight="bold" fill="#4a3520">Notes-noread.md</text><path d="M795 180 h95 l35 35 v145 h-130 z" fill="#ffffff" stroke="#cfa06a" stroke-width="2"/><polygon points="890,180 925,215 890,215" fill="#f6e3c8" stroke="#cfa06a" stroke-width="1.5"/><rect x="815" y="238" width="90" height="5" rx="2.5" fill="#e0c9a8"/><rect x="815" y="256" width="90" height="5" rx="2.5" fill="#e0c9a8"/><rect x="815" y="274" width="90" height="5" rx="2.5" fill="#e0c9a8"/><rect x="815" y="292" width="90" height="5" rx="2.5" fill="#e0c9a8"/><path d="M851 322 v-5 a9 9 0 0 1 18 0 v5" fill="none" stroke="#4a3520" stroke-width="4"/><rect x="846" y="322" width="28" height="22" rx="3" fill="#6e4a2c"/><circle cx="860" cy="331" r="3.5" fill="#f2c94c"/><text x="860" y="490" text-anchor="middle" font-family="DejaVu Sans, sans-serif" font-size="14" fill="#8a6a48">filename ends -noread = never opened unasked</text><polygon points="1080,565 1114,585 1080,605 1046,585" fill="#f2c94c"/><polygon points="1046,585 1080,605 1080,637 1046,617" fill="#d4a72c"/><polygon points="1114,585 1080,605 1080,637 1114,617" fill="#b3881e"/></svg>